<svg id="svg" xmlns="http://www.w3.org/2000/svg" xmlns:xlink="http://www.w3.org/1999/xlink" width="400" height="406.3520070577856" viewBox="0, 0, 400,406.3520070577856"><g id="svgg"><path id="path0" d="M198.495 0.173 C 196.293 0.574,196.052 0.787,195.054 3.222 C 194.034 5.714,193.275 7.456,192.616 8.822 C 192.253 9.574,191.566 11.047,191.089 12.094 C 189.433 15.732,185.524 23.415,184.371 25.298 C 184.171 25.625,183.518 26.773,182.919 27.851 C 179.645 33.741,173.042 43.964,168.769 49.757 C 168.106 50.655,167.212 51.886,166.782 52.492 C 165.559 54.215,161.563 59.619,160.357 61.182 C 158.975 62.974,156.235 66.688,154.921 68.552 C 154.364 69.342,153.319 70.786,152.598 71.760 C 148.337 77.524,143.001 86.464,140.639 91.797 C 135.269 103.923,132.933 114.343,132.349 128.782 C 132.299 130.014,132.253 130.422,132.154 130.521 C 132.073 130.602,130.400 130.965,127.701 131.489 C 111.533 134.626,102.442 137.343,89.810 142.812 C 82.493 145.980,73.095 151.410,67.181 155.886 C 66.308 156.547,65.236 157.344,64.799 157.657 C 63.148 158.840,59.456 161.813,57.742 163.339 C 57.353 163.685,56.599 164.342,56.065 164.800 C 54.142 166.449,50.148 170.068,47.110 172.913 C 42.675 177.066,37.869 181.324,35.135 183.520 C 32.933 185.288,28.726 188.334,26.793 189.559 C 20.196 193.738,12.602 196.736,4.263 198.451 C 1.263 199.069,0.881 199.318,0.407 200.974 C -0.016 202.453,-0.033 203.201,0.323 204.720 C 0.757 206.576,1.107 206.885,3.661 207.673 C 10.777 209.869,21.178 214.715,27.614 218.834 C 28.463 219.377,30.090 220.410,31.231 221.130 C 33.549 222.592,36.687 224.679,38.156 225.737 C 38.690 226.121,40.060 227.104,41.200 227.922 C 42.340 228.740,44.047 229.985,44.993 230.690 C 45.940 231.394,47.389 232.464,48.213 233.068 C 49.038 233.672,50.011 234.411,50.375 234.710 C 51.282 235.455,54.371 237.823,57.080 239.848 C 58.317 240.773,60.069 242.121,60.973 242.843 C 61.877 243.565,63.108 244.511,63.708 244.946 C 64.308 245.381,65.752 246.436,66.917 247.290 C 71.823 250.887,72.758 251.559,74.857 252.993 C 77.638 254.894,79.244 255.946,81.032 257.037 C 81.809 257.511,83.031 258.273,83.749 258.729 C 87.173 260.907,93.159 264.035,97.089 265.701 C 97.719 265.969,99.049 266.536,100.044 266.962 C 108.595 270.622,119.137 272.812,129.265 273.033 C 131.503 273.082,131.997 273.115,132.102 273.225 C 132.193 273.320,132.318 274.248,132.551 276.577 C 134.027 291.313,136.499 302.777,140.524 313.552 C 143.142 320.558,147.674 328.857,152.057 334.671 C 155.946 339.830,157.652 342.003,159.811 344.552 C 166.011 351.872,171.664 359.021,174.460 363.079 C 175.129 364.049,176.023 365.320,176.447 365.902 C 182.378 374.045,190.574 390.009,195.471 402.954 C 196.332 405.230,196.532 405.488,197.735 405.870 C 199.915 406.563,202.813 406.278,203.867 405.267 C 204.266 404.885,204.366 404.673,205.243 402.346 C 206.169 399.893,206.914 398.057,207.791 396.074 C 208.156 395.249,208.791 393.800,209.203 392.854 C 213.284 383.487,219.281 372.596,223.875 366.211 C 224.311 365.604,225.238 364.294,225.934 363.300 C 227.258 361.408,229.321 358.650,230.497 357.199 C 230.876 356.730,231.888 355.480,232.744 354.420 C 234.364 352.415,237.561 348.595,240.411 345.258 C 242.674 342.608,244.538 340.325,245.814 338.641 C 246.402 337.865,247.245 336.773,247.687 336.215 C 251.911 330.885,256.561 322.736,259.238 315.974 C 263.555 305.072,266.303 292.407,267.760 276.709 C 267.893 275.273,267.985 274.642,268.075 274.548 C 268.180 274.439,268.667 274.406,270.868 274.358 C 282.170 274.115,293.139 271.579,303.529 266.806 C 308.941 264.319,314.130 261.532,317.865 259.107 C 318.520 258.682,319.830 257.842,320.776 257.242 C 323.538 255.490,328.084 252.343,330.999 250.166 C 332.485 249.056,334.416 247.630,335.289 246.996 C 337.392 245.470,339.144 244.135,340.759 242.829 C 341.487 242.240,342.717 241.288,343.494 240.713 C 344.270 240.137,346.195 238.673,347.772 237.458 C 353.142 233.323,357.556 230.029,359.727 228.540 C 360.357 228.107,361.469 227.311,362.197 226.772 C 372.181 219.369,386.031 212.089,396.427 208.779 C 397.300 208.501,398.160 208.200,398.336 208.110 C 399.894 207.317,400.463 203.746,399.408 201.388 C 398.946 200.354,398.432 200.096,395.779 199.564 C 381.498 196.700,371.467 191.079,356.937 177.800 C 355.415 176.408,353.595 174.749,352.895 174.114 C 352.194 173.479,350.963 172.344,350.160 171.591 C 348.002 169.569,345.353 167.199,343.802 165.904 C 343.050 165.276,341.901 164.291,341.249 163.715 C 337.502 160.407,330.534 155.292,325.888 152.437 C 323.030 150.682,321.336 149.693,319.674 148.809 C 318.946 148.422,317.744 147.769,317.004 147.357 C 312.779 145.005,306.169 142.239,297.089 139.022 C 290.855 136.814,279.430 134.026,270.256 132.473 C 267.399 131.989,267.696 132.298,267.579 129.687 C 266.916 114.878,264.302 103.837,258.452 91.134 C 257.879 89.889,256.383 87.013,255.963 86.347 C 255.848 86.165,255.315 85.237,254.779 84.285 C 253.045 81.203,249.457 75.539,247.772 73.225 C 247.225 72.472,245.938 70.666,244.913 69.210 C 243.085 66.614,240.950 63.686,239.151 61.307 C 238.652 60.648,236.974 58.350,235.421 56.201 C 233.869 54.051,232.263 51.831,231.853 51.267 C 230.471 49.368,227.953 45.753,227.053 44.376 C 226.562 43.624,225.349 41.798,224.358 40.318 C 222.588 37.672,218.763 31.417,217.071 28.399 C 216.597 27.555,215.951 26.427,215.635 25.893 C 214.251 23.553,210.544 16.306,208.872 12.670 C 208.451 11.754,207.895 10.583,207.638 10.068 C 207.038 8.870,205.732 5.906,204.845 3.731 C 204.018 1.703,203.880 1.423,203.538 1.081 C 202.723 0.266,200.343 -0.163,198.495 0.173 M203.220 62.459 C 210.185 64.267,216.244 75.991,217.971 91.001 C 218.094 92.070,218.125 93.183,218.134 96.780 C 218.145 101.263,218.165 101.693,218.413 102.823 C 218.682 104.047,219.159 104.694,220.421 105.542 C 230.360 112.225,234.984 120.456,233.927 129.585 C 232.902 138.445,226.018 151.044,216.664 161.183 C 216.014 161.887,215.009 162.999,214.429 163.653 C 211.863 166.553,203.088 174.995,201.332 176.254 C 200.734 176.684,200.273 176.651,199.498 176.124 C 198.325 175.325,195.288 172.908,193.692 171.504 C 193.110 170.991,192.137 170.157,191.531 169.650 C 184.998 164.186,177.039 155.149,173.430 149.096 C 167.606 139.329,165.604 130.498,167.624 123.485 C 169.703 116.267,173.685 111.124,181.350 105.756 C 183.342 104.361,183.453 103.943,183.464 97.750 C 183.474 92.130,183.591 90.826,184.520 85.973 C 186.574 75.244,190.387 67.543,195.433 63.936 C 197.660 62.344,200.618 61.783,203.220 62.459 M269.431 167.221 C 278.110 168.301,286.617 172.424,293.045 178.666 C 295.164 180.723,295.677 180.924,299.891 181.345 C 317.260 183.079,332.473 190.291,336.728 198.809 C 338.098 201.551,336.881 204.890,333.159 208.602 C 328.427 213.322,321.806 216.604,310.753 219.708 C 308.357 220.381,304.708 221.032,300.553 221.527 C 296.206 222.045,295.624 222.343,294.268 224.745 C 288.845 234.351,279.368 238.777,266.740 237.598 C 257.392 236.726,244.119 232.738,233.083 227.484 C 229.107 225.591,227.301 225.153,225.011 225.526 C 222.640 225.912,222.182 226.559,222.193 229.510 C 222.202 231.979,222.457 232.723,224.395 235.951 C 228.972 243.572,232.273 253.391,233.099 261.844 C 234.442 275.576,228.643 291.446,219.571 298.866 C 217.955 300.187,217.723 300.523,217.407 302.000 C 217.210 302.923,217.196 305.712,217.381 307.411 C 218.143 314.428,215.281 323.561,209.681 331.981 C 206.711 336.447,202.214 341.067,200.837 341.067 C 198.792 341.067,192.356 333.430,189.054 327.084 C 185.196 319.669,183.693 313.177,184.389 306.925 C 184.543 305.536,184.527 303.119,184.358 302.188 C 184.079 300.661,183.739 300.157,182.187 298.967 C 180.177 297.425,178.167 295.150,176.114 292.091 C 169.308 281.948,166.891 268.647,169.525 255.826 C 170.382 251.653,171.618 247.766,173.460 243.449 C 174.723 240.491,174.942 240.068,178.064 234.583 C 179.505 232.051,179.884 229.517,179.167 227.196 C 178.758 225.872,177.603 225.412,174.966 225.523 C 172.751 225.616,172.159 225.804,168.238 227.661 C 160.652 231.252,149.336 235.108,142.126 236.556 C 133.936 238.202,126.735 238.155,121.394 236.421 C 115.374 234.466,110.652 230.572,107.451 224.923 C 105.993 222.348,105.429 222.059,100.838 221.528 C 82.559 219.415,66.419 210.909,64.524 202.390 C 63.205 196.463,73.618 188.272,87.693 184.165 C 92.475 182.769,96.230 182.049,101.500 181.518 C 105.921 181.072,106.402 180.888,108.569 178.823 C 113.110 174.494,119.394 170.694,125.032 168.867 C 132.350 166.495,140.729 166.496,149.096 168.870 C 154.692 170.458,162.379 173.946,166.873 176.937 C 171.654 180.119,176.244 184.852,180.257 190.737 C 182.440 193.938,185.343 199.077,186.987 202.649 C 191.057 211.492,194.121 220.494,196.205 229.730 C 196.767 232.221,196.974 232.681,197.731 233.117 C 199.311 234.028,201.734 234.102,203.533 233.295 C 204.593 232.819,204.860 232.326,205.425 229.792 C 206.696 224.091,208.674 217.581,211.112 211.072 C 217.523 193.961,226.726 181.347,237.075 175.490 C 245.264 170.856,254.243 167.779,261.315 167.184 C 261.921 167.133,262.556 167.076,262.726 167.056 C 263.480 166.971,268.391 167.092,269.431 167.221 " stroke="none" fill="#000000" fill-rule="evenodd"></path></g></svg>