<?xml version="1.0" encoding="UTF-8"?>
<svg version="1.1" xmlns="http://www.w3.org/2000/svg" width="512" height="512">
<path d="M0 0 C1.10332134 -0.00525911 1.10332134 -0.00525911 2.22893199 -0.01062447 C4.68911411 -0.01991469 7.14905826 -0.01502133 9.60925007 -0.01015663 C11.39277966 -0.0138941 13.17630761 -0.018496 14.95983297 -0.02388728 C19.85775041 -0.03612091 24.75559957 -0.03585637 29.65352881 -0.03349853 C34.93726728 -0.03309045 40.22098384 -0.04412868 45.5047121 -0.05361366 C55.85574264 -0.07022693 66.20675041 -0.07572337 76.55779316 -0.07683842 C84.97238236 -0.07778879 93.38696404 -0.08189856 101.80155087 -0.08823967 C125.66055948 -0.10585342 149.51955011 -0.1150784 173.37856527 -0.11357872 C175.30795315 -0.11345885 175.30795315 -0.11345885 177.27631855 -0.11333656 C178.56414851 -0.1132548 179.85197847 -0.11317304 181.17883358 -0.1130888 C202.04749346 -0.11227599 222.91608115 -0.13141205 243.78472015 -0.1596133 C265.21456001 -0.1883443 286.64436468 -0.20215345 308.07422429 -0.20042574 C320.10458888 -0.19976189 332.13487779 -0.20525214 344.16522503 -0.22678185 C354.40883659 -0.2449965 364.65233818 -0.24933862 374.89595892 -0.235763 C380.12073368 -0.22923469 385.34529748 -0.22911135 390.57005215 -0.2464695 C395.35757392 -0.26221118 400.14471766 -0.25932525 404.93223027 -0.24190123 C406.65968106 -0.23883376 408.38716014 -0.24245417 410.11457755 -0.25362138 C425.84499631 -0.3485391 438.9339559 2.63329624 450.88642597 13.51117516 C458.92829511 21.88924284 464.56709428 31.74086031 464.54687786 43.46453571 C464.54952969 44.20728651 464.55218151 44.95003731 464.5549137 45.7152957 C464.56262171 48.22400456 464.56316645 50.73266459 464.56376362 53.24138451 C464.56777727 55.05033448 464.57221533 56.85928356 464.57704318 58.66823155 C464.5890257 63.65497796 464.59466103 68.64171469 464.59922433 73.62847269 C464.60517419 79.00089427 464.61678569 84.37330424 464.62751484 89.745718 C464.65205482 102.72943384 464.66666928 115.71315353 464.67957491 128.69688544 C464.68328598 132.36354661 464.68725929 136.03020739 464.69132757 139.69686818 C464.71656557 162.46075676 464.73862125 185.22464593 464.75105572 207.98854542 C464.75398548 213.26325991 464.75694713 218.53797438 464.75996113 223.81268883 C464.76070718 225.1237151 464.76145323 226.43474137 464.76222189 227.78549571 C464.77487343 249.01977858 464.80809265 270.25397768 464.84976296 291.4882214 C464.89218497 313.28405407 464.91575116 335.07984385 464.92097628 356.8757177 C464.92439032 369.11520161 464.93614462 381.35455466 464.96907902 393.59399796 C464.99708442 404.018873 465.00807669 414.44359037 464.99688356 424.86850011 C464.99169803 430.18645835 464.99457714 435.50408643 465.0193491 440.82199669 C465.04185809 445.69485411 465.04108867 450.56714451 465.02214523 455.44001199 C465.01934754 457.19854382 465.02493086 458.95711424 465.03995816 460.71558409 C465.16094451 475.80120892 462.19034026 487.02207956 451.40986347 498.25726891 C439.2936015 509.8831594 427.37379864 512.00353707 411.30549335 511.89218712 C409.48464414 511.89795602 407.66380075 511.90590227 405.84296942 511.91582334 C400.86499478 511.93661432 395.88750203 511.92641679 390.90952611 511.91089225 C385.53110163 511.89955088 380.15275836 511.91705527 374.77435017 511.93079185 C364.24815432 511.95299903 353.72213696 511.94823425 343.19593418 511.93372865 C334.63938585 511.92242652 326.08288746 511.92090974 317.52633381 511.92634773 C316.30749006 511.9271139 315.0886463 511.92788006 313.83286789 511.92866945 C311.35663806 511.93026811 308.88040824 511.93188917 306.40417844 511.9335324 C283.19667921 511.94778253 259.98927882 511.93140869 236.7817958 511.90453057 C216.87830924 511.8821925 196.9749685 511.88607283 177.07148457 511.90912437 C153.94577017 511.93589534 130.82014234 511.9464093 107.69441462 511.93106306 C105.22740747 511.92947035 102.76040031 511.92789849 100.29339314 511.92634773 C98.47277679 511.92519067 98.47277679 511.92519067 96.61538032 511.92401022 C88.07131336 511.91969713 79.52730142 511.92697139 70.98324299 511.9387455 C60.5677066 511.95278339 50.15235857 511.94894326 39.73684371 511.92234178 C34.42491932 511.90922113 29.11330874 511.90402153 23.80138683 511.92058754 C18.93440621 511.93553613 14.06802892 511.92721794 9.20110267 511.90069978 C7.44487251 511.89513561 5.6885909 511.89790865 3.93239409 511.91007872 C-11.13911039 512.00647219 -22.3662626 509.02688824 -33.59013653 498.25726891 C-42.54200213 488.92782022 -47.70660541 477.99743382 -47.7243576 465.05189323 C-47.72670984 464.32149558 -47.72906207 463.59109793 -47.73148558 462.83856702 C-47.73817107 460.37789974 -47.73771749 457.91728532 -47.73730755 455.45660973 C-47.74060646 453.67979524 -47.74433209 451.90298151 -47.74844903 450.12616873 C-47.75847418 445.23289248 -47.76218666 440.33962849 -47.76483834 435.44634342 C-47.7687399 430.17278267 -47.77831839 424.89923165 -47.7870512 419.62567711 C-47.80682055 406.88412862 -47.81688275 394.14257933 -47.82577899 381.40101933 C-47.83016142 375.40147744 -47.83552837 369.40193644 -47.84076786 363.40239525 C-47.85778116 343.45928951 -47.87227521 323.51618432 -47.8795166 303.57307243 C-47.88142651 298.39684104 -47.88334684 293.22060966 -47.88530254 288.04437828 C-47.88578628 286.75784243 -47.88627002 285.47130658 -47.88676842 284.1457848 C-47.89506822 263.30603709 -47.92040385 242.4663468 -47.95288322 221.62662417 C-47.98595404 200.23304366 -48.00396542 178.83949233 -48.00716084 157.44588614 C-48.00932599 145.43335696 -48.01807537 133.42091148 -48.04362202 121.40840721 C-48.06532934 111.17753788 -48.07337926 100.94677258 -48.06365523 90.71588284 C-48.05911058 85.49720039 -48.0610066 80.27873258 -48.08041668 75.06007957 C-48.09804911 70.27799601 -48.09704983 65.49628366 -48.08151939 60.71419615 C-48.07914345 58.98867169 -48.08346613 57.26312152 -48.09534804 55.53763634 C-48.19688666 39.81200834 -45.21020825 26.72889017 -34.33623028 14.78070641 C-24.83454938 5.66031286 -13.27448721 0.01431781 0 0 Z " fill="#385A63" transform="translate(47.59013652801514,0.7427310943603516)"/>
<path d="M0 0 C3.15215801 1.78310794 5.95835006 3.96600798 8.8125 6.1875 C13.9698935 10.13138914 19.04297278 13.74042294 24.7746582 16.80493164 C27.01365653 18.00733392 29.20117795 19.27355667 31.38671875 20.5703125 C32.09763672 20.99183594 32.80855469 21.41335937 33.54101562 21.84765625 C34.98409272 22.70641187 36.42679519 23.56579731 37.86914062 24.42578125 C41.8457238 26.78200647 45.83146186 28.9937517 50 31 C51.12535156 31.54398438 52.25070313 32.08796875 53.41015625 32.6484375 C61.48072433 36.48135243 69.62110632 39.88417185 78 43 C79.66869712 43.66156793 81.33607955 44.32650839 83 45 C83 45.66 83 46.32 83 47 C83.66515625 47.08765625 84.3303125 47.1753125 85.015625 47.265625 C88.9112249 48.22422812 92.1970423 49.91838473 95.75 51.75 C96.81081787 52.28862671 96.81081787 52.28862671 97.89306641 52.83813477 C102.4468261 55.16302583 106.95503818 57.55933641 111.3984375 60.08984375 C112.57990233 60.76126157 113.78454583 61.39227292 115 62 C115 62.66 115 63.32 115 64 C116.32 64.33 117.64 64.66 119 65 C119 65.66 119 66.32 119 67 C119.598125 67.103125 120.19625 67.20625 120.8125 67.3125 C123.31258286 68.09824033 124.37535082 68.96918853 126 71 C126 71.66 126 72.32 126 73 C126.66 73 127.32 73 128 73 C128 73.66 128 74.32 128 75 C128.721875 75.185625 129.44375 75.37125 130.1875 75.5625 C133.55144747 77.28185093 134.78317629 79.12956584 136.7890625 82.24609375 C138.04077643 84.05906006 139.41607066 85.47489032 141 87 C149 96.29032258 149 96.29032258 149 101 C150.64675829 100.56599454 152.29234953 100.12756083 153.9375 99.6875 C154.85402344 99.44386719 155.77054688 99.20023437 156.71484375 98.94921875 C159.23710042 98.22043353 161.6976615 97.43397922 164.1796875 96.5859375 C180.7787024 91.00668445 197.51714641 87.75849003 215 87 C215.76393066 86.96680664 216.52786133 86.93361328 217.31494141 86.89941406 C239.28672961 86.11105754 260.24902675 90.90370914 281.60839844 95.56982422 C297.53640407 99.01641601 315.34880893 100.44266644 331 95 C331.33 94.67 331.66 94.34 332 94 C335.72224599 93.70613847 336.77786243 93.85190829 340 96 C340.5417897 100.04664166 340.49259054 102.22704613 338.27734375 105.703125 C337.50519531 106.54359375 336.73304688 107.3840625 335.9375 108.25 C331.32423994 113.52953938 327.63491145 119.02240479 324 125 C323.62351318 125.58015869 323.24702637 126.16031738 322.85913086 126.75805664 C319.47991981 132.00093384 316.71285399 137.42044677 314.0625 143.0625 C313.62574951 143.98643555 313.18899902 144.91037109 312.73901367 145.86230469 C309.17892925 153.46682979 306.03210971 161.16982657 303 169 C291.30209724 198.37099326 278.13570153 229.47002523 252 249 C251.34 249 250.68 249 250 249 C250 249.66 250 250.32 250 251 C243.25 255 243.25 255 241 255 C242.37034194 259.48475543 243.79382709 263.78819787 246 267.9375 C247.97268432 271.70216473 249.16564219 275.51489715 250.2890625 279.60546875 C250.95548924 282.01041148 250.95548924 282.01041148 251.95703125 284.2734375 C253.35279506 287.9222882 254.19340264 291.63395984 255.0625 295.4375 C255.23587891 296.17548828 255.40925781 296.91347656 255.58789062 297.67382812 C260.30963432 318.02617163 257.59364244 337.6591896 254 358 C253.56049298 360.55950907 253.12545865 363.11968933 252.69458008 365.68066406 C252.4531296 367.10684183 252.20627591 368.53212476 251.9519043 369.95605469 C250.27889919 379.57191387 249.80557991 389.18939772 249.8125 398.9375 C249.81258057 400.01563965 249.81266113 401.0937793 249.81274414 402.20458984 C249.89200075 413.53244557 250.83531306 424.75305906 252.6328125 435.9375 C253 439 253 439 251.9375 440.875 C249.25856447 442.43051095 247.08496302 442.81112471 244 443 C241.625 442.0625 241.625 442.0625 240 441 C240 440.34 240 439.68 240 439 C238.68 438.67 237.36 438.34 236 438 C236 437.34 236 436.68 236 436 C235.34 436 234.68 436 234 436 C234 435.34 234 434.68 234 434 C232.02 433.34 230.04 432.68 228 432 C228 431.34 228 430.68 228 430 C227.34 430 226.68 430 226 430 C226 429.34 226 428.68 226 428 C224.7934375 427.690625 224.7934375 427.690625 223.5625 427.375 C220.49073633 426.189407 218.41842562 425.0312257 215.75 423.1875 C208.27364125 418.0451631 200.18233245 414.59824604 191.8046875 411.1875 C189.46269471 410.19590417 187.24334427 409.12898575 185 407.9375 C180.96324122 405.86121628 176.76851445 404.53157514 172.453125 403.1484375 C165.89637729 400.96779969 159.45678007 398.458165 153 396 C153 395.34 153 394.68 153 394 C152.27039063 393.87753906 151.54078125 393.75507813 150.7890625 393.62890625 C141.74895323 391.59045024 134.19199613 385.55694939 127 380 C126.06800781 379.30003906 125.13601563 378.60007812 124.17578125 377.87890625 C123.45777344 377.25886719 122.73976563 376.63882812 122 376 C122 375.34 122 374.68 122 374 C121.4225 373.7525 120.845 373.505 120.25 373.25 C117.67060021 371.81700012 115.93878408 370.21575324 114 368 C114 367.34 114 366.68 114 366 C113.01 365.67 112.02 365.34 111 365 C111 364.34 111 363.68 111 363 C110.01 362.67 109.02 362.34 108 362 C108 361.34 108 360.68 108 360 C107.34 360 106.68 360 106 360 C105.731875 359.195625 105.46375 358.39125 105.1875 357.5625 C104.795625 356.716875 104.40375 355.87125 104 355 C103.01 354.67 102.02 354.34 101 354 C99.60287726 352.04402816 98.28072371 350.0340906 97 348 C95.35529188 345.65041697 93.6758612 343.327585 92 341 C88.30187494 342.3867969 84.84375637 344.06522852 81.35546875 345.90234375 C68.41083117 351.9345878 54.21022675 354.65377625 40 355 C39.31808594 355.02046387 38.63617188 355.04092773 37.93359375 355.06201172 C28.05743402 355.32923339 18.28384922 354.91955096 8.4375 354.125 C7.45088379 354.04660889 6.46426758 353.96821777 5.44775391 353.88745117 C0.05793244 353.41241452 -5.13699467 352.62631276 -10.42797852 351.50830078 C-27.30701377 348.17254839 -44.54220499 347.70398064 -61.6875 347.6875 C-62.53315521 347.68409607 -63.37881042 347.68069214 -64.25009155 347.67718506 C-72.71142659 347.65764173 -80.79659065 347.66134849 -89 350 C-91.875 350.4375 -91.875 350.4375 -94 350 C-95.875 347.8125 -95.875 347.8125 -97 345 C-96.6875 342.1875 -96.6875 342.1875 -96 340 C-95.34 340 -94.68 340 -94 340 C-93.67 339.01 -93.34 338.02 -93 337 C-91.54385066 335.7851672 -90.08491465 334.57331606 -88.60449219 333.38818359 C-86.0445273 331.17333874 -84.07497712 328.55558708 -82.125 325.8125 C-81.70081787 325.21663086 -81.27663574 324.62076172 -80.83959961 324.00683594 C-73.82771774 313.74426506 -69.21594605 301.95259947 -66 290 C-63.24826102 280.90606811 -60.39885673 271.87615103 -57 263 C-56.33871094 261.22496094 -56.33871094 261.22496094 -55.6640625 259.4140625 C-52.50992193 251.10294993 -48.78928551 243.52312714 -44 236 C-43.03900391 234.48599609 -43.03900391 234.48599609 -42.05859375 232.94140625 C-37.73812295 226.30428378 -33.04804649 220.09657006 -28 214 C-27.49082031 213.35546875 -26.98164062 212.7109375 -26.45703125 212.046875 C-25.35150246 210.65929048 -24.18298968 209.32216494 -23 208 C-22.34 208 -21.68 208 -21 208 C-20.7421875 207.41734375 -20.484375 206.8346875 -20.21875 206.234375 C-18.90165983 203.8197097 -17.44911616 202.18259823 -15.5 200.25 C-14.8915625 199.63640625 -14.283125 199.0228125 -13.65625 198.390625 C-12 197 -12 197 -10 197 C-9.67 196.01 -9.34 195.02 -9 194 C-7.36735356 192.54038617 -5.67087977 191.15093248 -3.9375 189.8125 C-3.01839844 189.09707031 -2.09929687 188.38164062 -1.15234375 187.64453125 C-0.44207031 187.10183594 0.26820313 186.55914062 1 186 C0.46516116 182.82305732 -0.04511367 180.92588468 -1.75 178.125 C-5.27221137 172.28892715 -7.00131296 165.471939 -9 159 C-9.50660156 157.40671875 -9.50660156 157.40671875 -10.0234375 155.78125 C-12.72119567 145.33553037 -13.28741398 135.32691714 -13.1875 124.5625 C-13.1865332 122.58926758 -13.1865332 122.58926758 -13.18554688 120.57617188 C-13.1334069 108.86785159 -12.3404706 97.43329162 -10.5 85.875 C-8.18103697 70.23281952 -7.91558484 54.72782498 -7.875 38.9375 C-7.87223053 38.22267456 -7.86946106 37.50784912 -7.86660767 36.7713623 C-7.84599905 29.49076888 -7.92038834 22.28539473 -8.76416016 15.04516602 C-9.07354945 12.36219074 -9.20291418 9.69958724 -9.25 7 C-9.27578125 6.0925 -9.3015625 5.185 -9.328125 4.25 C-9.21984375 3.5075 -9.1115625 2.765 -9 2 C-5.37699223 -0.41533851 -4.28068245 -0.65130012 0 0 Z " fill="#141717" transform="translate(139,35)"/>
<path d="M0 0 C2.26834829 5.24555543 1.3433234 9.95791845 -0.5625 15.125 C-5.08145559 25.40680488 -11.38615879 34.0529373 -20 41.3125 C-20.66 41.3125 -21.32 41.3125 -22 41.3125 C-22 41.9725 -22 42.6325 -22 43.3125 C-23.46100052 44.29830641 -24.94436098 45.2510852 -26.4375 46.1875 C-30.07272165 48.8994373 -30.07272165 48.8994373 -31.609375 53.01953125 C-31.66253966 55.04776288 -31.69562527 57.07659824 -31.7109375 59.10546875 C-32.36568625 66.36964066 -36.49339387 73.57659534 -42 78.3125 C-42.66 78.3125 -43.32 78.3125 -44 78.3125 C-44 78.9725 -44 79.6325 -44 80.3125 C-59.94029289 89.7790821 -76.73468901 94.23444178 -95.10986328 95.4909668 C-99.88967374 95.86916096 -102.98646283 96.47215062 -107 99.3125 C-107.66 99.3125 -108.32 99.3125 -109 99.3125 C-106.04972231 107.09050481 -102.14563643 109.44969807 -95 113.3125 C-92.54574225 114.88061867 -90.29843857 116.51372199 -88 118.3125 C-88 118.9725 -88 119.6325 -88 120.3125 C-87.34 120.3125 -86.68 120.3125 -86 120.3125 C-86 120.9725 -86 121.6325 -86 122.3125 C-85.01 122.6425 -84.02 122.9725 -83 123.3125 C-83 123.9725 -83 124.6325 -83 125.3125 C-82.01 125.6425 -81.02 125.9725 -80 126.3125 C-80 126.9725 -80 127.6325 -80 128.3125 C-79.01 128.6425 -78.02 128.9725 -77 129.3125 C-75.96708324 131.29570018 -74.9662501 133.29597806 -74 135.3125 C-73.34 135.6425 -72.68 135.9725 -72 136.3125 C-65.61311178 149.08627644 -63.16778555 161.44357065 -65.23681641 175.46606445 C-66.6333178 183.72144627 -66.6333178 183.72144627 -64.1875 191.375 C-63.465625 192.344375 -62.74375 193.31375 -62 194.3125 C-55.55353199 205.2219074 -55.28036594 220.53540823 -57.67578125 232.76171875 C-58.35178739 235.00759696 -59.07066161 237.16063907 -60 239.3125 C-69.16205235 240.35364231 -77.77469102 235.59931145 -85 230.3125 C-85.94875 229.77625 -86.8975 229.24 -87.875 228.6875 C-88.57625 228.23375 -89.2775 227.78 -90 227.3125 C-90 226.6525 -90 225.9925 -90 225.3125 C-90.66 225.3125 -91.32 225.3125 -92 225.3125 C-92 224.6525 -92 223.9925 -92 223.3125 C-92.99 222.9825 -93.98 222.6525 -95 222.3125 C-96.46139603 219.99741717 -97.78314076 217.72405657 -99.0625 215.3125 C-101.24845351 210.58217577 -101.24845351 210.58217577 -105 207.3125 C-105 206.6525 -105 205.9925 -105 205.3125 C-106.11375 205.23 -107.2275 205.1475 -108.375 205.0625 C-118.14520415 203.77242023 -126.00324645 199.19015988 -133 192.3125 C-133 191.6525 -133 190.9925 -133 190.3125 C-133.99 189.9825 -134.98 189.6525 -136 189.3125 C-142.9394477 181.51769294 -147.53338034 172.38890371 -150 162.3125 C-150.37125 161.054375 -150.7425 159.79625 -151.125 158.5 C-152.94458816 151.87150028 -153.29468721 145.56941432 -153.51757812 138.73046875 C-153.55173828 137.95058594 -153.58589844 137.17070312 -153.62109375 136.3671875 C-153.6461499 135.66062012 -153.67120605 134.95405273 -153.69702148 134.22607422 C-153.91486086 131.98763889 -153.91486086 131.98763889 -156 129.3125 C-160.92760117 129.73486581 -162.70967817 131.75721814 -166 135.3125 C-167.8891826 137.58299803 -169.70022372 139.90827428 -171.5 142.25 C-173.32575307 144.61018219 -175.15772305 146.96518963 -177 149.3125 C-177.45761719 149.89918457 -177.91523438 150.48586914 -178.38671875 151.09033203 C-179.54452544 152.53631715 -180.76723686 153.92986326 -182 155.3125 C-182.66 155.3125 -183.32 155.3125 -184 155.3125 C-184.33 156.3025 -184.66 157.2925 -185 158.3125 C-185.66 158.3125 -186.32 158.3125 -187 158.3125 C-187 158.9725 -187 159.6325 -187 160.3125 C-191.47058824 164.3125 -191.47058824 164.3125 -194 164.3125 C-194.33 165.3025 -194.66 166.2925 -195 167.3125 C-205.24806209 174.89302698 -214.51086535 177.04814569 -227.01953125 175.875 C-229.82504506 175.34551902 -231.50881381 174.71887443 -233.875 173.1875 C-236.88406273 171.00664645 -236.88406273 171.00664645 -240.4375 171.375 C-243.68759586 172.23028838 -246.71292885 173.25362666 -249.83203125 174.484375 C-252.19987721 175.38884949 -254.58058457 176.18166424 -257 176.9375 C-257.763125 177.17726563 -258.52625 177.41703125 -259.3125 177.6640625 C-270.01818146 180.24711936 -285.10977495 181.85102603 -295 176.3125 C-297.27279424 174.46585468 -297.8450912 173.26940499 -298.30859375 170.40625 C-298.98891602 158.69646063 -292.19832283 149.89021159 -285 141.3125 C-279.62634939 135.35616438 -273.72430182 129.73376399 -267 125.3125 C-266.34 125.3125 -265.68 125.3125 -265 125.3125 C-264.79375 124.24 -264.5875 123.1675 -264.375 122.0625 C-260.76014629 107.78003602 -252.33077591 96.96471785 -240 89.3125 C-239.22527344 88.796875 -238.45054687 88.28125 -237.65234375 87.75 C-230.31366604 83.77263123 -220.36310498 81.68452424 -212 81.3125 C-210.90429688 81.24933594 -209.80859375 81.18617188 -208.6796875 81.12109375 C-196.95776225 80.74801399 -186.56090164 83.28349922 -176 88.3125 C-176 88.9725 -176 89.6325 -176 90.3125 C-175.12085938 90.57546875 -174.24171875 90.8384375 -173.3359375 91.109375 C-163.1906961 94.76831452 -153.38526154 102.52803514 -146 110.3125 C-145.195625 111.116875 -144.39125 111.92125 -143.5625 112.75 C-142.716875 113.595625 -141.87125 114.44125 -141 115.3125 C-140.45601562 115.83328125 -139.91203125 116.3540625 -139.3515625 116.890625 C-137.86505378 118.32828132 -136.42868383 119.81736576 -135 121.3125 C-135 121.9725 -135 122.6325 -135 123.3125 C-132.69 123.3125 -130.38 123.3125 -128 123.3125 C-128 122.6525 -128 121.9925 -128 121.3125 C-127.34 121.3125 -126.68 121.3125 -126 121.3125 C-126.11562606 119.91585892 -126.242992 118.52018801 -126.375 117.125 C-126.44460938 116.34769531 -126.51421875 115.57039063 -126.5859375 114.76953125 C-126.91069553 112.30105698 -126.91069553 112.30105698 -127.90625 110.078125 C-135.83947904 90.01838872 -136.82894397 61.22530516 -128.74609375 41.20703125 C-125.42507668 34.06729701 -121.19099413 27.25174554 -116 21.3125 C-115.34 21.3125 -114.68 21.3125 -114 21.3125 C-113.67 20.3225 -113.34 19.3325 -113 18.3125 C-112.34 18.3125 -111.68 18.3125 -111 18.3125 C-111 17.6525 -111 16.9925 -111 16.3125 C-101.48411659 7.6616969 -89.8712337 2.5515372 -77 2.3125 C-73.716906 2.48635843 -70.45099145 2.75426161 -67.17578125 3.0390625 C-59.95757217 3.66055652 -54.77476688 4.10590161 -48.38671875 0.46484375 C-35.25996481 -5.87295071 -12.15562266 -10.25630662 0 0 Z " fill="#385A63" transform="translate(409,166.6875)"/>
<path d="M0 0 C2.80347919 0.81226632 5.31458848 1.82818406 8 3 C8 3.66 8 4.32 8 5 C9.98 5.66 11.96 6.32 14 7 C14 7.66 14 8.32 14 9 C14.66 9 15.32 9 16 9 C16 9.66 16 10.32 16 11 C16.99 11.33 17.98 11.66 19 12 C19 12.66 19 13.32 19 14 C19.99 14.33 20.98 14.66 22 15 C24.62115553 17.85243395 26.42531075 20.12084756 27 24 C27.66 24 28.32 24 29 24 C31 27 31 27 31 31 C31.66 31 32.32 31 33 31 C33.474375 31.61875 33.94875 32.2375 34.4375 32.875 C37.84667102 35.70211743 40.80589391 35.7931285 45.109375 36.4375 C49.41286011 37.27493494 53.11129666 39.02869692 57 41 C57.74378906 41.37125 58.48757812 41.7425 59.25390625 42.125 C59.83011719 42.41375 60.40632813 42.7025 61 43 C61 43.66 61 44.32 61 45 C62.485 45.495 62.485 45.495 64 46 C64.69937532 47.31647119 65.36729133 48.65022151 66 50 C66.66 50.33 67.32 50.66 68 51 C68.81640625 52.85546875 68.81640625 52.85546875 69.5625 55.1875 C69.81128906 55.94417969 70.06007813 56.70085937 70.31640625 57.48046875 C76.14313212 78.95611553 70.29906536 104.49752979 63 125 C62 126 62 126 59.83203125 126.0546875 C48.61515334 125.38718894 37.8853488 122.6601465 27 120 C27 119.34 27 118.68 27 118 C26.13375 117.89171875 25.2675 117.7834375 24.375 117.671875 C16.4796722 116.10011993 8.68714315 111.68714315 3 106 C3 105.34 3 104.68 3 104 C2.40445313 103.75894531 1.80890625 103.51789063 1.1953125 103.26953125 C-1.43713009 101.74721124 -2.48929521 100.23526009 -4.125 97.6875 C-4.62257812 96.92824219 -5.12015625 96.16898437 -5.6328125 95.38671875 C-10.09716411 87.59323636 -10.35890148 79.1285738 -8.06640625 70.4765625 C-7.32825455 68.28509482 -6.58622555 66.09492831 -5.83984375 63.90625 C-4.27456192 58.48964683 -5.01100803 54.80137822 -7.75 49.8125 C-8.10320312 49.24789062 -8.45640625 48.68328125 -8.8203125 48.1015625 C-15.38898475 36.39975565 -18.13781248 23.31596171 -17 10 C-14.12521699 1.37565096 -8.59506701 -1.23803118 0 0 Z " fill="#385A63" transform="translate(183,101)"/>
<path d="M0 0 C1.10332134 -0.00525911 1.10332134 -0.00525911 2.22893199 -0.01062447 C4.68911411 -0.01991469 7.14905826 -0.01502133 9.60925007 -0.01015663 C11.39277966 -0.0138941 13.17630761 -0.018496 14.95983297 -0.02388728 C19.85775041 -0.03612091 24.75559957 -0.03585637 29.65352881 -0.03349853 C34.93726728 -0.03309045 40.22098384 -0.04412868 45.5047121 -0.05361366 C55.85574264 -0.07022693 66.20675041 -0.07572337 76.55779316 -0.07683842 C84.97238236 -0.07778879 93.38696404 -0.08189856 101.80155087 -0.08823967 C125.66055948 -0.10585342 149.51955011 -0.1150784 173.37856527 -0.11357872 C175.30795315 -0.11345885 175.30795315 -0.11345885 177.27631855 -0.11333656 C178.56414851 -0.1132548 179.85197847 -0.11317304 181.17883358 -0.1130888 C202.04749346 -0.11227599 222.91608115 -0.13141205 243.78472015 -0.1596133 C265.21456001 -0.1883443 286.64436468 -0.20215345 308.07422429 -0.20042574 C320.10458888 -0.19976189 332.13487779 -0.20525214 344.16522503 -0.22678185 C354.40883659 -0.2449965 364.65233818 -0.24933862 374.89595892 -0.235763 C380.12073368 -0.22923469 385.34529748 -0.22911135 390.57005215 -0.2464695 C395.35757392 -0.26221118 400.14471766 -0.25932525 404.93223027 -0.24190123 C406.65968106 -0.23883376 408.38716014 -0.24245417 410.11457755 -0.25362138 C425.84499631 -0.3485391 438.9339559 2.63329624 450.88642597 13.51117516 C458.74621665 21.6995524 464.02737032 30.78247448 464.40986347 42.25726891 C462.74887694 39.08629463 461.4557647 35.84205473 460.15986347 32.50726891 C457.88840199 27.0411496 455.29367109 22.70142688 451.40986347 18.25726891 C450.93291035 17.66430016 450.45595722 17.07133141 449.96455097 16.46039391 C442.92135091 8.46158378 431.81131989 3.71714311 421.40986347 2.25726891 C415.67218214 1.96230585 409.94174505 1.97828048 404.19775105 1.98984337 C402.43724413 1.986104 400.67673887 1.98150134 398.91623622 1.97611272 C394.09124658 1.96390294 389.26632639 1.9641408 384.44132483 1.96650147 C379.23260505 1.96691015 374.02390738 1.95586574 368.81519794 1.94638634 C358.61550659 1.92978692 348.41583836 1.92427729 338.21613463 1.92316158 C329.92459096 1.92221069 321.6330549 1.91809837 313.34151363 1.91176033 C289.82634643 1.89415154 266.31119747 1.884921 242.79602363 1.88642128 C241.52881783 1.88650119 240.26161203 1.8865811 238.95600605 1.88666344 C237.05287315 1.88678608 237.05287315 1.88678608 235.11129311 1.8869112 C214.54668668 1.8877242 193.98215348 1.86858191 173.41756823 1.8403867 C152.29502834 1.81165529 131.17252417 1.79784652 110.04996425 1.79957426 C98.19400998 1.80023802 86.33813251 1.79475141 74.48219585 1.77321815 C64.38868327 1.75500311 54.29528228 1.75066181 44.20176037 1.764237 C39.05393069 1.77076469 33.90631511 1.77089083 28.75850582 1.7535305 C24.04137802 1.73778641 19.32463384 1.74067715 14.60751531 1.75809877 C12.90569611 1.76116567 11.20384819 1.75754798 9.50206288 1.74637862 C-6.67926851 1.64725181 -20.05021936 5.12453604 -32.27763653 16.25726891 C-40.79354743 25.16575726 -45.83397487 37.4779358 -45.84740543 49.7509079 C-45.85091151 50.47602562 -45.85441758 51.20114334 -45.8580299 51.94823432 C-45.86731834 54.37294784 -45.86242723 56.79741983 -45.85756207 59.22214317 C-45.86129963 60.9802113 -45.86590157 62.73827776 -45.87129271 64.49634159 C-45.88352527 69.32391925 -45.88326193 74.15142763 -45.88090396 78.97901726 C-45.88049585 84.18710968 -45.89153444 89.39517988 -45.9010191 94.60326195 C-45.91763206 104.80623672 -45.9231288 115.00918839 -45.92424385 125.21217556 C-45.9251943 133.50709563 -45.92930441 141.80200808 -45.9356451 150.09692574 C-45.95325922 173.61884358 -45.96248384 197.14074316 -45.96098416 220.66266765 C-45.96090424 221.93074153 -45.96082433 223.19881542 -45.960742 224.50531578 C-45.96066024 225.77493974 -45.96057847 227.0445637 -45.96049424 228.35266112 C-45.95968154 248.92318567 -45.97881452 269.49363697 -46.00701873 290.06414033 C-46.03575559 311.19001177 -46.04955854 332.31584749 -46.04783118 353.44173896 C-46.0471675 365.30054942 -46.05265001 377.1592831 -46.07418728 389.01807594 C-46.09240971 399.11636612 -46.09673772 409.21454472 -46.08316843 419.31284423 C-46.07664388 424.46280915 -46.07650314 429.61256009 -46.09387493 434.76250458 C-46.10963343 439.48284837 -46.10671361 444.20280901 -46.08930667 448.92314361 C-46.08624287 450.62504038 -46.08984564 452.32696595 -46.10102682 454.02882876 C-46.20194587 470.48792144 -42.96941369 484.42545284 -31.59013653 496.94476891 C-24.36957338 503.84713774 -15.15646257 507.73789296 -5.59013653 510.25726891 C-5.59013653 510.58726891 -5.59013653 510.91726891 -5.59013653 511.25726891 C-17.06493096 510.87477576 -26.14785304 505.59362208 -34.33623028 497.73383141 C-45.95749407 484.96453983 -48.19220027 471.11800073 -48.0980711 454.49457359 C-48.10268648 452.71085032 -48.10904366 450.92713086 -48.11698008 449.14341927 C-48.13360894 444.26811427 -48.12545643 439.39312427 -48.1130352 434.51781845 C-48.10396058 429.24983573 -48.11796639 423.98190603 -48.12895489 418.71393394 C-48.14671895 408.40432912 -48.14290952 398.09484094 -48.13130432 387.78523159 C-48.12226197 379.40460378 -48.12104948 371.0240086 -48.12539959 362.6433773 C-48.12601252 361.4495118 -48.12662545 360.2556463 -48.12725696 359.02560306 C-48.12853589 356.60010623 -48.12983275 354.17460941 -48.13114733 351.74911261 C-48.14254694 329.01804278 -48.12944911 306.28703753 -48.10794586 283.5559783 C-48.09007546 264.06184492 -48.09317974 244.56780682 -48.1116209 225.07367516 C-48.13303852 202.42260864 -48.14144836 179.77159868 -48.12917185 157.12052345 C-48.12789768 154.70406915 -48.1266402 152.28761483 -48.12539959 149.87116051 C-48.12478249 148.68229327 -48.12416539 147.49342603 -48.12352958 146.26853251 C-48.12007937 137.90030287 -48.12589796 129.53210919 -48.1353178 121.16388512 C-48.14654904 110.96247012 -48.14347399 100.7611782 -48.12219483 90.55977726 C-48.11169965 85.35725381 -48.10753653 80.15493539 -48.12079144 74.95241356 C-48.13275278 70.18543178 -48.12609119 65.41884417 -48.10488123 60.65189791 C-48.100431 58.93200458 -48.10264571 57.21207761 -48.11238438 55.4922061 C-48.1944487 39.78890887 -45.19338412 26.71040405 -34.33623028 14.78070641 C-24.83454938 5.66031286 -13.27448721 0.01431781 0 0 Z " fill="#000101" transform="translate(47.59013652801514,0.7427310943603516)"/>
<path d="M0 0 C0.33 0 0.66 0 1 0 C2.02680068 9.03584597 -2.33565434 17.20466971 -7.6875 24.25 C-15.09513581 32.87608805 -24.64773797 40.78562534 -36.31640625 42.30078125 C-38.25 42.3125 -38.25 42.3125 -41 42 C-38.00995755 40.41088653 -35.02565914 39.30714327 -31.8125 38.25 C-19.03120237 33.62697745 -10.12585367 25.3373905 -4.23754883 13.16552734 C-2.24255734 8.82940834 -0.84377414 4.68763412 0 0 Z " fill="#040707" transform="translate(511,470)"/>
<path d="M0 0 C13.01274214 4.20837618 23.2788635 12.90233551 29.60546875 25.09375 C31.90612192 30.30083056 33.2722049 34.24967157 33 40 C31.33901347 36.82902572 30.04590123 33.58478582 28.75 30.25 C26.47853851 24.78388069 23.88380762 20.44415797 20 16 C19.52304687 15.40703125 19.04609375 14.8140625 18.5546875 14.203125 C13.25526035 8.1846801 6.16458258 5.26927555 -1 2 C-0.67 1.34 -0.34 0.68 0 0 Z " fill="#040607" transform="translate(479,3)"/>
</svg>
